<svg width="306" height="375" viewBox="0 0 306 375" fill="none" xmlns="http://www.w3.org/2000/svg">
<g filter="url(#filter0_d_304_1694)">
<path fill-rule="evenodd" clip-rule="evenodd" d="M4 0H300V2H302V4H304V369H302V371H300V373H4V371H2V369H0V4H2V2H4V0Z" fill="#010101" fill-opacity="0.68" shape-rendering="crispEdges"/>
<path d="M5 2V1H299V2V3H300H301V4V5H302H303V368H302H301V369V370H300H299V371V372H5V371V370H4H3V369V368H2H1V5H2H3V4V3H4H5V2Z" stroke="#FAFAFA" stroke-width="2" shape-rendering="crispEdges"/>
</g>
<defs>
<filter id="filter0_d_304_1694" x="0" y="0" width="306" height="375" filterUnits="userSpaceOnUse" color-interpolation-filters="sRGB">
<feFlood flood-opacity="0" result="BackgroundImageFix"/>
<feColorMatrix in="SourceAlpha" type="matrix" values="0 0 0 0 0 0 0 0 0 0 0 0 0 0 0 0 0 0 127 0" result="hardAlpha"/>
<feOffset dx="2" dy="2"/>
<feComposite in2="hardAlpha" operator="out"/>
<feColorMatrix type="matrix" values="0 0 0 0 0.980392 0 0 0 0 0.980392 0 0 0 0 0.980392 0 0 0 1 0"/>
<feBlend mode="normal" in2="BackgroundImageFix" result="effect1_dropShadow_304_1694"/>
<feBlend mode="normal" in="SourceGraphic" in2="effect1_dropShadow_304_1694" result="shape"/>
</filter>
</defs>
</svg>
